#!OML:ASF F:\VICON\USERDATA\INSTALL\rory3\rory3.ASF
:FULLY-SPECIFIED
:DEGREES
1
root 0.41080847300760437 18.0480362026232 -29.196758208800617 -3.4548993033290465 -0.9938640706651416 -0.7625768288200041
lfemur -12.421485929939745 -0.005035388452206746 -23.027888661933787
ltibia 23.038540548268188
lfoot -4.762800384464956 -3.9219394360419617
ltoes -28.354979546175567
rfemur -13.622113262710705 -1.3632223033210482 22.79520296277347
rtibia 71.71391914589138
rfoot 4.293407665311928 -6.672167097418207
rtoes 2.4921718103113872
lowerback 12.60345669402947 1.0029261539684744 -0.4430314698529476
upperback 0.7126511793707584 1.3235527096234778 0.8088525321731421
thorax -6.372008033412229 0.6713051092300191 0.8558745795588214
lowerneck -16.827326610793126 -3.489498481504299 -1.8917321360935657
upperneck 21.502794369261373 -4.582161064297888 0.9315960272501216
head 9.655615590898568 -2.17537626134244 0.03283521053820518
lclavicle -2.0277218313592348e-15 -7.125406835767359e-16
lhumerus -32.43281548306157 9.218548838930664 80.34860838161075
lradius 21.34473538895782
lwrist 5.316351651661488
lhand -25.32654341705981 20.740473429896067
lfingers 7.12502
lthumb 1.1961812192954997 50.714721864903325
rclavicle -2.0277218313592348e-15 -7.125406835767359e-16
rhumerus -26.02467097683293 -20.11662967477005 -79.54731580431827
rradius 25.46135163860811
rwrist 6.011291885780528
rhand -18.39734690510799 23.24204821916038
rfingers 7.12502
rthumb 7.886889522194963 -6.590415491742206
2
root 0.4609251441168265 18.06276345099481 -28.41189909689372 -3.880466250836101 -0.472387192382577 -0.7083804423292492
lfemur -9.513570674242583 -0.30501406316139246 -23.43605576418198
ltibia 23.818823730215854
lfoot -7.14145481024227 -2.2534075018296305
ltoes -27.3513792620065
rfemur -19.289193787659944 -2.3135350037580915 22.858169032444064
rtibia 74.22831036792599
rfoot -0.9924952180105269 -8.867793067017956
rtoes -3.1750962267087615
lowerback 12.857218133290635 0.65397240651341 -0.7479917506803881
upperback 0.3700542807305054 0.8235769166991666 0.9044084154451021
thorax -6.877316209016065 0.44093466439306983 1.2164760886088932
lowerneck -14.773301769007581 -3.219972370497769 -1.909623797646912
upperneck 21.469773967544462 -4.247754793454506 0.9551532612591777
head 9.236492409206736 -2.035093387419381 0.12552155732383358
lclavicle -2.0277218345336753e-15 -7.125406928633322e-16
lhumerus -31.29136993219063 8.088375890929253 80.01444882237682
lradius 21.576331857209397
lwrist 5.318027269898943
lhand -25.276607187142815 19.690011972689945
lfingers 7.12502
lthumb 1.2443819076090317 49.664240876860646
rclavicle -2.0277218345336753e-15 -7.125406928633322e-16
rhumerus -29.291530676927636 -22.502601513631266 -77.8816641881828
rradius 24.538943248043914
rwrist 6.158445507056831
rhand -14.849755395605989 15.318627967016424
rfingers 7.12502
rthumb 11.30971760024554 -14.359340919439266
3
root 0.5070173614500653 18.029702285436038 -27.622432622059854 -3.758219611205031 1.3350324953048638 -0.1202854916819649
lfemur -7.138206622190168 -1.0092701090288738 -24.43970409079587
ltibia 24.52244762194005
lfoot -9.954070419641978 -1.4799656522293294
ltoes -24.32055358815434
rfemur -24.509539638431903 -3.884584240373849 22.336221951273675
rtibia 72.84926299810701
rfoot -5.172101318267403 -7.259458585793869
rtoes 1.676016240532276
lowerback 12.93970792317936 -0.07568208951940711 -1.6675543079572888
upperback 0.46008800843494324 -0.2651356387289702 1.1555099592521896
thorax -6.791796680418444 -0.057411345483994625 2.2064746266733595
lowerneck -15.94847163756401 -3.0119020116726425 -2.41714818904382
upperneck 22.276870601902637 -3.807357140274008 0.9046896752536153
head 9.756310730791416 -1.8659601049707826 0.22137071041209128
lclavicle -2.0277218650900073e-15 -7.125406900059318e-16
lhumerus -28.934708149633956 6.726670769319959 80.76668103963385
lradius 22.704639751461286
lwrist 6.78850973086893
lhand -25.497870567234152 21.379948827498918
lfingers 7.12502
lthumb 1.0307322407836885 51.35491395511989
rclavicle -2.0277218650900073e-15 -7.125406900059318e-16
rhumerus -30.671320372590916 -22.9487810081136 -76.98351093619843
rradius 24.72410578031735
rwrist 7.952579769731751
rhand -16.609356136856736 26.605088912745472
rfingers 7.12502
rthumb 9.612277697195836 -3.1567263952377402
4
root 0.541028271406059 17.96067455987811 -26.842778072151013 -3.5457855528328115 2.166477310985633 0.07844973861359827
lfemur -5.264304533897898 -1.1623585957084797 -24.884813193856246
ltibia 25.9056088058679
lfoot -12.587885859208374 -0.6483487667084278
ltoes -21.468602600360384
rfemur -28.628705723112603 -4.0310781749013564 22.383471402187983
rtibia 67.40806179638574
rfoot -9.360230042060143 -7.060244204415232
rtoes -2.470668043828916
lowerback 13.159614436993767 -0.46471573454025183 -1.913196897119733
upperback 0.3777651188155482 -0.8193768375587582 1.1948073478672743
thorax -6.972975822325786 -0.31567200857219063 2.4951070581072363
lowerneck -16.216477328535166 -2.9225946157581673 -2.012695107289308
upperneck 21.9891508571077 -3.6512275755741137 0.39661371043274385
head 9.684564532661446 -1.8184487585672755 -0.00281392715127754
lclavicle -2.027721824087128e-15 -7.125407248665025e-16
lhumerus -27.206196141652157 3.928199626793938 81.17509821483957
lradius 24.877728866039675
lwrist 8.637057807044817
lhand -26.285993640830597 20.726321889928364
lfingers 7.12502
lthumb 0.26947271428015585 50.70381622966823
rclavicle -2.027721824087128e-15 -7.125407248665025e-16
rhumerus -32.29499670520808 -22.44667791457867 -76.86578110749589
rradius 24.261950383391348
rwrist 5.217005362290118
rhand -15.21283510152386 17.005241067510063
rfingers 7.12502
rthumb 10.959506131152422 -12.691328638072282
5
root 0.5719838871140687 17.901264637064664 -26.048807488435173 -3.249344344409184 2.835144301252038 0.870358720355001
lfemur -2.141398210769367 -1.090661427503165 -25.934414038840405
ltibia 24.894548827787844
lfoot -14.478360373754356 -0.07239858342223782
ltoes -21.300489040189255
rfemur -30.949326933086205 -4.068520196992748 21.62157272934034
rtibia 58.02635505893054
rfoot -11.179795224729885 -9.279585874163024
rtoes -4.046493797508081
lowerback 13.213942096289625 -0.8506424937855008 -3.0271169094896884
upperback 0.284944351924032 -1.4895562584848807 1.3797164432373936
thorax -7.0318111988925045 -0.5998009077198143 3.4529575004373863
lowerneck -16.134782599594267 -2.7105539408424564 -2.4178630483796164
upperneck 21.608027578800353 -3.226647956513852 0.30168622311418014
head 9.534292915414161 -1.665596907834286 0.08994745529388903
lclavicle -2.0277219010303433e-15 -7.125406468588561e-16
lhumerus -25.406812618503594 3.667140123710717 81.17549638562345
lradius 26.15190838383537
lwrist 8.701637976106419
lhand -27.40174921143845 19.985230038599617
lfingers 7.12502
lthumb -0.8080886763165638 49.96173960409467
rclavicle -2.0277219010303433e-15 -7.125406468588561e-16
rhumerus -33.628469938885665 -22.024278690048845 -76.13485427237623
rradius 24.19285229732686
rwrist 5.940270800928264
rhand -18.138298971524943 23.289515138868907
rfingers 7.12502
rthumb 8.136900222988938 -6.533607540972312
6
root 0.5850383366175136 17.881628304868308 -25.232307988359906 -2.483485488996116 2.858438432735356 1.2769308355332436
lfemur 1.3941683993679401 -0.7563172602819201 -26.342581141088598
ltibia 22.261955161697678
lfoot -15.317008280147967 -0.1096201958153391
ltoes -20.008097583158385
rfemur -31.52823181116623 -2.95088316289426 21.11394064557897
rtibia 44.801068136113585
rfoot -10.886324889029478 -12.142165146993099
rtoes 2.0980562313322983
lowerback 12.634415475101543 -1.2107781588702702 -3.968030373831252
upperback -0.26081781716383046 -2.074518418602853 1.7075088999150327
thorax -7.191325350028515 -0.8337961184774363 4.439335232620525
lowerneck -14.414785378576806 -2.438008046948404 -2.6858235846882885
upperneck 20.682427824674726 -2.785626166761818 0.10866019954107942
head 8.870392316205809 -1.5068505429167702 0.1519776950916143
lclavicle -2.0277218365334326e-15 -7.125406931490965e-16
lhumerus -25.088339328002814 3.1706138387275384 81.34541306130761
lradius 27.772183703988773
lwrist 9.414383369985527
lhand -29.569418301390122 20.268458640472105
lfingers 7.12502
lthumb -2.9015777289546225 50.227798594432876
rclavicle -2.0277218365334326e-15 -7.125406931490965e-16
rhumerus -35.398598204454856 -21.926034496890647 -74.9378175291927
rradius 23.546835967756287
rwrist 6.685228080377302
rhand -17.28482586237621 23.680300486349758
rfingers 7.12502
rthumb 8.960461964136053 -6.109931169826587
7
root 0.573035953614226 17.898259075995206 -24.387475020206196 -1.667416049487736 2.8320297425098757 1.50624350650624
lfemur 5.276071268668092 -0.058533032008951213 -26.443196220226838
ltibia 18.657080011618955
lfoot -15.399989172741723 -0.9555606063018083
ltoes -17.806278936052394
rfemur -30.09027537102125 -0.4497067275080546 20.469064221868372
rtibia 28.46340325072251
rfoot -5.3582112363458965 -15.360560957123656
rtoes -2.3694159108000945
lowerback 11.643937250825058 -1.3109325852208285 -4.318730938916065
upperback -0.06191421476877546 -2.220116197810119 1.6743824088802923
thorax -6.381659499187579 -0.9234578766692543 4.57908016395736
lowerneck -15.43450013391796 -2.4778497960139836 -2.5156922017753796
upperneck 20.8528788824694 -2.886268964478975 0.2643759649382955
head 9.128552277529877 -1.521512714687688 0.15126956205625386
lclavicle -2.027721933586543e-15 -7.125406542881545e-16
lhumerus -23.02546072581447 2.1215128911074848 81.38542859889874
lradius 28.57597676786636
lwrist 10.24123855952351
lhand -29.85340660423545 19.776887046920233
lfingers 7.12502
lthumb -3.1758916688721652 49.73272063126914
rclavicle -2.027721933586543e-15 -7.125406542881545e-16
rhumerus -36.00881496169849 -24.007500032957996 -73.94708333703532
rradius 22.700835866003484
rwrist 7.781826104658407
rhand -17.702131762104052 22.448562740987825
rfingers 7.12502
rthumb 8.557792472403493 -7.3582160220783885
